<?xml version="1.0" encoding="UTF-8"?> <svg xmlns="http://www.w3.org/2000/svg" width="160" height="160" viewBox="0 0 160 160" fill="none"> <path d="M79.9998 53.3333C81.4726 53.3333 82.6665 54.5272 82.6665 56V84.2287L88.7809 78.1144C89.8223 77.073 91.5107 77.073 92.5521 78.1144C93.5935 79.1558 93.5935 80.8442 92.5521 81.8856L81.8855 92.5523C80.8441 93.5937 79.1556 93.5937 78.1142 92.5523L67.4476 81.8856C66.4062 80.8442 66.4062 79.1558 67.4476 78.1144C68.489 77.073 70.1774 77.073 71.2188 78.1144L77.3332 84.2287V56C77.3332 54.5272 78.5271 53.3333 79.9998 53.3333ZM61.3332 93.3333C62.8059 93.3333 63.9998 94.5272 63.9998 96V101.333H95.9998V96C95.9998 94.5272 97.1937 93.3333 98.6665 93.3333C100.139 93.3333 101.333 94.5272 101.333 96V101.333C101.333 104.279 98.9454 106.667 95.9998 106.667H63.9998C61.0543 106.667 58.6665 104.279 58.6665 101.333V96C58.6665 94.5272 59.8604 93.3333 61.3332 93.3333Z" fill="white"></path> </svg> 