<?xml version="1.0" encoding="UTF-8"?> <svg xmlns="http://www.w3.org/2000/svg" width="461" height="125" viewBox="0 0 461 125" fill="none"> <path d="M459.531 62.5C459.531 70.5981 453.479 78.558 441.916 85.9865C430.4 93.3857 413.668 100.087 392.904 105.729C351.389 117.01 293.982 124 230.531 124C167.081 124 109.673 117.01 68.1591 105.729C47.3948 100.087 30.6634 93.3857 19.1465 85.9865C7.58409 78.558 1.53146 70.5981 1.53146 62.5C1.53146 54.4019 7.58409 46.442 19.1465 39.0135C30.6634 31.6144 47.3948 24.9133 68.1591 19.2708C109.673 7.98977 167.081 1 230.531 1C293.982 1 351.389 7.98977 392.904 19.2708C413.668 24.9133 430.4 31.6144 441.916 39.0135C453.479 46.442 459.531 54.4019 459.531 62.5Z" stroke="#2F1E18" stroke-width="2"></path> </svg> 