<?xml version="1.0" encoding="UTF-8"?> <svg xmlns="http://www.w3.org/2000/svg" width="71" height="35" viewBox="0 0 71 35" fill="none"> <path d="M29.2186 1.15376C31.0095 0.464535 32.9015 0.0747471 34.8188 0L35.341 13.4162C35.3938 13.4142 35.4468 13.4132 35.5 13.4132C35.8572 13.4132 36.2036 13.459 36.5338 13.5452L39.929 0.556851C41.7853 1.04283 43.5491 1.83101 45.1498 2.88983L37.752 14.0903C38.0966 14.3187 38.4045 14.598 38.6651 14.9176L49.0643 6.43403C50.2767 7.92237 51.2362 9.6001 51.9044 11.4001L39.3287 16.076C39.4686 16.4525 39.5545 16.8552 39.5773 17.2748L52.9735 16.5361C53.0791 18.4534 52.8688 20.375 52.3512 22.224L39.433 18.6022C39.3203 19.0053 39.1475 19.3833 38.9248 19.7257L50.1768 27.0383C49.1317 28.6487 47.8292 30.0762 46.3212 31.2635L38.0249 20.7113C37.7067 20.9622 37.3503 21.1667 36.9659 21.3148L41.7814 33.8462C39.9905 34.5354 38.0985 34.9252 36.1812 34.9999L35.6589 21.5829C35.6062 21.585 35.5532 21.586 35.5 21.586C35.1429 21.586 34.7966 21.5401 34.4665 21.4539L31.0711 34.4426C29.2148 33.9566 27.451 33.1684 25.8504 32.1096L33.2483 20.909C32.9037 20.6806 32.5957 20.4013 32.3351 20.0818L21.9359 28.5654C20.7235 27.0771 19.764 25.3993 19.0958 23.5994L31.6714 18.9235C31.5315 18.547 31.4455 18.1442 31.4228 17.7247L18.0265 18.4633C17.9209 16.546 18.1312 14.6244 18.6488 12.7754L31.567 16.3972C31.6795 15.9941 31.8523 15.6162 32.075 15.2738L20.8232 7.96134C21.8683 6.35093 23.1708 4.92348 24.6788 3.73611L32.9749 14.288C33.2931 14.0371 33.6494 13.8325 34.0339 13.6845L29.2186 1.15376Z" fill="#FFF6ED"></path> </svg> 