<?xml version="1.0" encoding="UTF-8"?> <svg xmlns="http://www.w3.org/2000/svg" width="2254" height="803" viewBox="0 0 2254 803" fill="none"> <path d="M2252.99 401.356C2252.99 456.313 2221.71 508.805 2164.82 556.679C2107.94 604.548 2025.58 647.703 1923.71 683.964C1719.99 756.483 1438.48 801.356 1127.49 801.356C816.501 801.356 534.995 756.483 331.272 683.964C229.406 647.703 147.041 604.548 90.1621 556.679C33.2781 508.805 1.99219 456.313 1.99219 401.356C1.99219 346.4 33.2781 293.908 90.1621 246.034C147.041 198.164 229.406 155.01 331.272 118.749C534.995 46.2295 816.501 1.35645 1127.49 1.35645C1438.48 1.35645 1719.99 46.2295 1923.71 118.749C2025.58 155.01 2107.94 198.164 2164.82 246.034C2221.71 293.908 2252.99 346.4 2252.99 401.356Z" stroke="#2F1E18" stroke-width="2"></path> </svg> 